<?xml version="1.0" encoding="UTF-8" standalone="no"?>
<svg
   xmlns:dc="http://purl.org/dc/elements/1.1/"
   xmlns:cc="http://creativecommons.org/ns#"
   xmlns:rdf="http://www.w3.org/1999/02/22-rdf-syntax-ns#"
   xmlns:svg="http://www.w3.org/2000/svg"
   xmlns="http://www.w3.org/2000/svg"
   xmlns:sodipodi="http://sodipodi.sourceforge.net/DTD/sodipodi-0.dtd"
   xmlns:inkscape="http://www.inkscape.org/namespaces/inkscape"
   version="1.1"
   id="svg2"
   height="288.56943"
   width="453.14044"
   inkscape:version="0.91 r13725"
   sodipodi:docname="homodyneheterodyne_beamsplitter.svg"
   inkscape:export-filename="F:\Research\Works\Graphics\Photonics\Nanofiber\ProbeNanofiber_birefringence_lightpath.png"
   inkscape:export-xdpi="400.98001"
   inkscape:export-ydpi="400.98001">
  <sodipodi:namedview
     pagecolor="#ffffff"
     bordercolor="#666666"
     borderopacity="1"
     objecttolerance="10"
     gridtolerance="10"
     guidetolerance="10"
     inkscape:pageopacity="0"
     inkscape:pageshadow="2"
     inkscape:window-width="1920"
     inkscape:window-height="1037"
     id="namedview5870"
     showgrid="true"
     inkscape:zoom="1"
     inkscape:cx="-103.99961"
     inkscape:cy="274.81819"
     inkscape:window-x="0"
     inkscape:window-y="27"
     inkscape:window-maximized="1"
     inkscape:current-layer="g3517"
     fit-margin-top="0"
     fit-margin-left="0"
     fit-margin-right="0"
     fit-margin-bottom="0">
    <inkscape:grid
       type="xygrid"
       id="grid5872"
       originx="-505.21946"
       originy="64.000017" />
  </sodipodi:namedview>
  <defs
     id="defs4">
    <marker
       inkscape:isstock="true"
       style="overflow:visible"
       id="marker4638"
       refX="0"
       refY="0"
       orient="auto"
       inkscape:stockid="Arrow1Lend">
      <path
         inkscape:connector-curvature="0"
         transform="matrix(-0.8,0,0,-0.8,-10,0)"
         style="fill:#000000;fill-opacity:1;fill-rule:evenodd;stroke:#0f4058;stroke-width:1pt;stroke-opacity:1"
         d="M 0,0 5,-5 -12.5,0 5,5 0,0 Z"
         id="path4640" />
    </marker>
    <marker
       inkscape:stockid="Arrow1Lend"
       orient="auto"
       refY="0"
       refX="0"
       id="marker8835"
       style="overflow:visible"
       inkscape:isstock="true"
       inkscape:collect="always">
      <path
         id="path8837"
         d="M 0,0 5,-5 -12.5,0 5,5 0,0 Z"
         style="fill:#60c1ff;fill-opacity:1;fill-rule:evenodd;stroke:#60c1ff;stroke-width:1pt;stroke-opacity:1"
         transform="matrix(-0.8,0,0,-0.8,-10,0)"
         inkscape:connector-curvature="0" />
    </marker>
    <marker
       inkscape:isstock="true"
       style="overflow:visible"
       id="marker8631"
       refX="0"
       refY="0"
       orient="auto"
       inkscape:stockid="Arrow1Lend"
       inkscape:collect="always">
      <path
         inkscape:connector-curvature="0"
         transform="matrix(-0.8,0,0,-0.8,-10,0)"
         style="fill:#60c1ff;fill-opacity:1;fill-rule:evenodd;stroke:#60c1ff;stroke-width:1pt;stroke-opacity:1"
         d="M 0,0 5,-5 -12.5,0 5,5 0,0 Z"
         id="path8633" />
    </marker>
    <marker
       inkscape:stockid="Arrow1Lend"
       orient="auto"
       refY="0"
       refX="0"
       id="Arrow1Lend"
       style="overflow:visible"
       inkscape:isstock="true"
       inkscape:collect="always">
      <path
         id="path7844"
         d="M 0,0 5,-5 -12.5,0 5,5 0,0 Z"
         style="fill:#000000;fill-opacity:1;fill-rule:evenodd;stroke:#000000;stroke-width:1pt;stroke-opacity:1"
         transform="matrix(-0.8,0,0,-0.8,-10,0)"
         inkscape:connector-curvature="0" />
    </marker>
    <marker
       style="overflow:visible"
       id="Arrow1Lstart"
       orient="auto"
       refY="0"
       refX="0">
      <path
         inkscape:connector-curvature="0"
         style="fill-rule:evenodd;stroke:#000000;stroke-width:1pt"
         id="path8407"
         transform="matrix(0.8,0,0,0.8,10,0)"
         d="M 0,0 5,-5 -12.5,0 5,5 0,0 Z" />
    </marker>
    <marker
       style="overflow:visible"
       id="Arrow1Lstart-2"
       orient="auto"
       refY="0"
       refX="0">
      <path
         inkscape:connector-curvature="0"
         style="fill-rule:evenodd;stroke:#000000;stroke-width:1pt"
         id="path8407-0"
         transform="matrix(0.8,0,0,0.8,10,0)"
         d="M 0,0 5,-5 -12.5,0 5,5 0,0 Z" />
    </marker>
    <marker
       style="overflow:visible"
       id="Arrow1Lstart-2-0"
       orient="auto"
       refY="0"
       refX="0">
      <path
         inkscape:connector-curvature="0"
         style="fill-rule:evenodd;stroke:#000000;stroke-width:1pt"
         id="path8407-0-7"
         transform="matrix(0.8,0,0,0.8,10,0)"
         d="M 0,0 5,-5 -12.5,0 5,5 0,0 Z" />
    </marker>
  </defs>
  <metadata
     id="metadata7">
    <rdf:RDF>
      <cc:Work
         rdf:about="">
        <dc:format>image/svg+xml</dc:format>
        <dc:type
           rdf:resource="http://purl.org/dc/dcmitype/StillImage" />
        <dc:title></dc:title>
      </cc:Work>
    </rdf:RDF>
  </metadata>
  <g
     transform="translate(-605.09717,-264.98016)"
     id="layer1">
    <g
       id="g3517">
      <g
         transform="matrix(0.83451723,0,0,0.86150214,528.52182,17.94622)"
         id="layer1-9"
         inkscape:label="Layer 1">
        <rect
           rx="4.7538114"
           ry="40.468063"
           y="451.89413"
           x="259.53192"
           height="80.936165"
           width="15.221882"
           id="rect6611"
           style="opacity:0.5270004;fill:#60c1ff;fill-opacity:1;fill-rule:evenodd;stroke:#010101;stroke-width:0.73199999;stroke-linecap:round;stroke-linejoin:round;stroke-miterlimit:4;stroke-dasharray:none;stroke-dashoffset:0;stroke-opacity:1" />
      </g>
      <g
         id="layer1-0"
         transform="matrix(0.83451723,0,0,0.86150214,565.71558,16.22322)">
        <rect
           style="opacity:0.5270004;fill:#60c1ff;fill-opacity:1;fill-rule:evenodd;stroke:#010101;stroke-width:1.66799998;stroke-linecap:round;stroke-miterlimit:4;stroke-dasharray:none;stroke-dashoffset:0;stroke-opacity:1"
           id="rect6611-6"
           width="80"
           height="80"
           x="260"
           y="452.36221" />
        <path
           style="fill:none;fill-rule:evenodd;stroke:#000000;stroke-width:1px;stroke-linecap:butt;stroke-linejoin:miter;stroke-opacity:1"
           d="m 340,452.3622 -80,80"
           id="path7162"
           inkscape:connector-curvature="0" />
      </g>
      <g
         transform="matrix(0.83451723,0,0,0.86150214,693.6117,12.0614)"
         id="layer1-58"
         inkscape:label="Layer 1">
        <rect
           rx="7.6109409"
           ry="40.468063"
           y="451.89413"
           x="259.53192"
           height="80.936165"
           width="15.221882"
           id="rect6611-1"
           style="opacity:0.88999999;fill:#ff00ff;fill-opacity:1;fill-rule:evenodd;stroke:#010101;stroke-width:0.73199999;stroke-linecap:round;stroke-linejoin:round;stroke-miterlimit:4;stroke-dasharray:none;stroke-dashoffset:0;stroke-opacity:1" />
        <path
           transform="scale(-1,1)"
           sodipodi:open="true"
           d="m -267.70041,533.11105 a 63.387119,40.748863 0 0 1 -54.94509,-20.43047 63.387119,40.748863 0 0 1 0.15112,-40.80475 63.387119,40.748863 0 0 1 55.09581,-20.26205"
           sodipodi:end="4.7171508"
           sodipodi:start="1.5707963"
           sodipodi:ry="40.748863"
           sodipodi:rx="63.387119"
           sodipodi:cy="492.36218"
           sodipodi:cx="-267.70041"
           sodipodi:type="arc"
           id="path7469"
           style="opacity:0.297;fill:#ff00ff;fill-opacity:1;fill-rule:evenodd;stroke:#010101;stroke-width:0.66284817;stroke-linecap:round;stroke-linejoin:round;stroke-miterlimit:4;stroke-dasharray:none;stroke-dashoffset:0;stroke-opacity:1" />
      </g>
      <g
         transform="matrix(0,-0.86150214,0.83451723,0,402.66029,570.65622)"
         id="layer1-58-9"
         inkscape:label="Layer 1">
        <rect
           rx="7.6109409"
           ry="40.468063"
           y="451.89413"
           x="259.53192"
           height="80.936165"
           width="15.221882"
           id="rect6611-1-9"
           style="opacity:0.88999999;fill:#ff00ff;fill-opacity:1;fill-rule:evenodd;stroke:#010101;stroke-width:0.73199999;stroke-linecap:round;stroke-linejoin:round;stroke-miterlimit:4;stroke-dasharray:none;stroke-dashoffset:0;stroke-opacity:1" />
        <path
           transform="scale(-1,1)"
           sodipodi:open="true"
           d="m -267.70041,533.11105 a 63.387119,40.748863 0 0 1 -54.94509,-20.43047 63.387119,40.748863 0 0 1 0.15112,-40.80475 63.387119,40.748863 0 0 1 55.09581,-20.26205"
           sodipodi:end="4.7171508"
           sodipodi:start="1.5707963"
           sodipodi:ry="40.748863"
           sodipodi:rx="63.387119"
           sodipodi:cy="492.36218"
           sodipodi:cx="-267.70041"
           sodipodi:type="arc"
           id="path7469-0"
           style="opacity:0.297;fill:#ff00ff;fill-opacity:1;fill-rule:evenodd;stroke:#010101;stroke-width:0.66284817;stroke-linecap:round;stroke-linejoin:round;stroke-miterlimit:4;stroke-dasharray:none;stroke-dashoffset:0;stroke-opacity:1" />
      </g>
      <ellipse
         style="opacity:0.37099998;fill:#ff00ff;fill-opacity:1;fill-rule:evenodd;stroke:#e7ff67;stroke-width:5.26719713;stroke-linecap:round;stroke-miterlimit:4;stroke-dasharray:none;stroke-dashoffset:0;stroke-opacity:1"
         id="path7667"
         cx="3532.9675"
         cy="349.65988"
         rx="110.62671"
         ry="108.16538"
         transform="matrix(0.30071474,0,0,0.32437589,-66.73953,217.6828)" />
      <path
         style="fill:none;fill-rule:evenodd;stroke:#000000;stroke-width:3.80077553;stroke-linecap:butt;stroke-linejoin:miter;stroke-miterlimit:4;stroke-dasharray:none;stroke-opacity:1"
         d="m 3454.407,678.88596 c 56.7196,-16.54076 141.4288,-6.29462 132.0525,-86.09141 -21.048,-46.7024 -102.3623,-8.04724 -100.9498,-54.01576 -3.3516,-72.36292 52.1507,-45.80416 52.1507,-98.92167"
         id="path7696"
         inkscape:connector-curvature="0"
         sodipodi:nodetypes="cccc"
         transform="matrix(0.30071474,0,0,0.32437589,-66.73953,217.6828)" />
      <path
         style="fill:none;fill-rule:evenodd;stroke:#000000;stroke-width:3.80077553;stroke-linecap:butt;stroke-linejoin:miter;stroke-miterlimit:4;stroke-dasharray:none;stroke-opacity:1"
         d="m 2927.1356,200.82826 c 18.2932,-17.74557 -5.3032,-43.50909 55.5023,-53.11752 83.2533,1e-5 83.4453,34.71656 111.0045,53.11752 75.0452,67.89299 83.2533,106.23505 138.7556,79.67628 83.2534,-26.55875 27.7511,-79.67627 138.7556,-106.23504 77.3733,-10.67158 93.4422,51.99487 138.7556,79.67628"
         id="path7761"
         inkscape:connector-curvature="0"
         sodipodi:nodetypes="cccccc"
         transform="matrix(0.30071474,0,0,0.32437589,-66.73953,217.6828)" />
      <path
         style="fill:none;fill-rule:evenodd;stroke:#000000;stroke-width:4.88756943;stroke-linecap:butt;stroke-linejoin:miter;stroke-miterlimit:4;stroke-dasharray:none;stroke-opacity:1;marker-end:url(#Arrow1Lend)"
         d="m 3640.3348,344.24558 91.7807,0"
         id="path7835"
         inkscape:connector-curvature="0"
         transform="matrix(0.30071474,0,0,0.32437589,-66.73953,217.6828)" />
      <text
         xml:space="preserve"
         style="font-style:normal;font-weight:normal;font-size:33.91609573px;line-height:125%;font-family:Sans;letter-spacing:0px;word-spacing:0px;fill:#000000;fill-opacity:1;stroke:none;stroke-width:1px;stroke-linecap:butt;stroke-linejoin:miter;stroke-opacity:1"
         x="810.76135"
         y="320.55164"
         id="text8286"
         sodipodi:linespacing="125%"
         transform="scale(0.98421381,1.0160394)"><tspan
           sodipodi:role="line"
           id="tspan8288"
           x="810.76135"
           y="320.55164"
           style="font-size:25px">D1</tspan></text>
      <text
         xml:space="preserve"
         style="font-style:normal;font-weight:normal;font-size:33.91609573px;line-height:125%;font-family:Sans;letter-spacing:0px;word-spacing:0px;fill:#000000;fill-opacity:1;stroke:none;stroke-width:1px;stroke-linecap:butt;stroke-linejoin:miter;stroke-opacity:1"
         x="941.06812"
         y="436.99567"
         id="text8300"
         sodipodi:linespacing="125%"
         transform="scale(0.98421381,1.0160394)"><tspan
           sodipodi:role="line"
           id="tspan8302"
           x="941.06812"
           y="436.99567"
           style="font-size:27.5px">D2</tspan></text>
      <path
         inkscape:connector-curvature="0"
         id="path8623"
         d="m 611.87771,441.5496 302.73058,0"
         style="fill:none;fill-rule:evenodd;stroke:#60c1ff;stroke-width:1.54023814;stroke-linecap:butt;stroke-linejoin:miter;stroke-miterlimit:4;stroke-dasharray:none;stroke-opacity:1;marker-end:url(#marker8631)" />
      <path
         inkscape:connector-curvature="0"
         id="path8827"
         d="m 814.87771,439.5496 0,-100"
         style="fill:none;fill-rule:evenodd;stroke:#60c1ff;stroke-width:1.36800003;stroke-linecap:butt;stroke-linejoin:miter;stroke-miterlimit:4;stroke-dasharray:none;stroke-opacity:1;marker-end:url(#marker8835)" />
      <path
         style="fill:#000000;fill-opacity:1;fill-rule:evenodd;stroke:#0f4058;stroke-width:1.88800001;stroke-linecap:butt;stroke-linejoin:miter;stroke-miterlimit:4;stroke-dasharray:22.656, 1.888;stroke-dashoffset:0;stroke-opacity:1;marker-end:url(#marker4638)"
         d="m 815.87771,553.5496 0,-102.92712"
         id="path3800"
         inkscape:connector-curvature="0" />
      <text
         xml:space="preserve"
         style="font-style:normal;font-weight:normal;font-size:40px;line-height:125%;font-family:sans-serif;letter-spacing:0px;word-spacing:0px;fill:#000000;fill-opacity:1;stroke:none;stroke-width:1px;stroke-linecap:butt;stroke-linejoin:miter;stroke-opacity:1"
         x="603.87769"
         y="476.54959"
         id="text5050"
         sodipodi:linespacing="125%"><tspan
           sodipodi:role="line"
           id="tspan5052"
           x="603.87769"
           y="476.54959"
           style="font-size:22.5px">signal mode</tspan></text>
      <g
         transform="matrix(2.2755961,0,0,2.0360586,388.18849,126.08645)"
         id="g5267">
        <g
           style="font-style:normal;font-variant:normal;font-weight:normal;font-stretch:normal;letter-spacing:normal;word-spacing:normal;text-anchor:start;fill:none;fill-opacity:1;fill-rule:evenodd;stroke:#000000;stroke-linecap:butt;stroke-linejoin:miter;stroke-miterlimit:10.43299961;stroke-dasharray:none;stroke-dashoffset:0;stroke-opacity:1"
           id="content"
           transform="matrix(0.41224204,0,0,-0.41224204,-72.142358,313.76994)"
           xml:space="preserve"
           stroke-miterlimit="10.433"
           font-style="normal"
           font-variant="normal"
           font-weight="normal"
           font-stretch="normal"
           font-size-adjust="none"
           letter-spacing="normal"
           word-spacing="normal"><polygon
             style="fill:#000000;stroke-width:0"
             points="468.45,437.98 474.18,432.9 475.08,433.8 468.45,440.57 461.78,433.8 462.68,432.9 "
             id="polygon5270" /><path
             style="fill:#000000;stroke-width:0"
             inkscape:connector-curvature="0"
             d="m 474.58,424.83 -0.08,0.17 -0.09,0.17 -0.1,0.16 -0.09,0.16 -0.1,0.16 -0.1,0.16 -0.11,0.15 -0.11,0.14 -0.11,0.15 -0.12,0.13 -0.12,0.14 -0.12,0.13 -0.13,0.12 -0.13,0.12 -0.14,0.11 -0.14,0.11 -0.14,0.11 -0.15,0.09 -0.15,0.1 -0.15,0.08 -0.16,0.08 -0.17,0.08 -0.17,0.07 -0.17,0.06 -0.17,0.05 -0.19,0.05 -0.18,0.04 -0.19,0.03 -0.19,0.03 -0.2,0.02 -0.21,0.01 -0.2,0.01 0.05,-1.1 c 3.24,0 3.93,-4.08 3.93,-4.38 0,-0.3 -0.1,-0.6 -0.15,-0.85 l -2.49,-9.76 c -0.25,-0.9 -0.25,-1 -0.99,-1.84 -2.19,-2.75 -4.24,-3.54 -5.63,-3.54 -2.49,0 -3.19,2.74 -3.19,4.68 0,2.49 1.59,8.62 2.74,10.91 1.54,2.94 3.78,4.78 5.78,4.78 l -0.05,1.1 c -5.83,0 -12.01,-7.32 -12.01,-14.6 0,-4.68 2.74,-7.97 6.63,-7.97 0.99,0 3.49,0.2 6.47,3.74 0.4,-2.09 2.14,-3.74 4.53,-3.74 1.75,0 2.9,1.15 3.69,2.74 0.85,1.79 1.5,4.83 1.5,4.93 0,0.5 -0.45,0.5 -0.6,0.5 -0.5,0 -0.55,-0.2 -0.7,-0.89 -0.85,-3.24 -1.74,-6.18 -3.78,-6.18 -1.35,0 -1.5,1.29 -1.5,2.29 0,1.09 0.1,1.49 0.65,3.69 0.55,2.09 0.65,2.59 1.1,4.48 l 1.79,6.97 c 0.35,1.4 0.35,1.5 0.35,1.7 0,0.84 -0.6,1.34 -1.45,1.34 -1.19,0 -1.94,-1.09 -2.09,-2.19 z"
             id="path5272" /></g>      </g>
      <text
         sodipodi:linespacing="125%"
         id="text5323"
         y="530.54956"
         x="822.87769"
         style="font-style:normal;font-weight:normal;font-size:40px;line-height:125%;font-family:sans-serif;letter-spacing:0px;word-spacing:0px;fill:#000000;fill-opacity:1;stroke:none;stroke-width:1px;stroke-linecap:butt;stroke-linejoin:miter;stroke-opacity:1"
         xml:space="preserve"><tspan
           style="font-size:22.5px"
           y="530.54956"
           x="822.87769"
           id="tspan5325"
           sodipodi:role="line">local oscillator</tspan></text>
      <g
         id="g5378"
         transform="matrix(2.2282323,0,0,2.1741997,494.71395,58.831306)">
        <g
           word-spacing="normal"
           letter-spacing="normal"
           font-size-adjust="none"
           font-stretch="normal"
           font-weight="normal"
           font-variant="normal"
           font-style="normal"
           stroke-miterlimit="10.433"
           xml:space="preserve"
           transform="matrix(0.41224204,0,0,-0.41224204,-72.142358,313.76994)"
           id="g5380"
           style="font-style:normal;font-variant:normal;font-weight:normal;font-stretch:normal;letter-spacing:normal;word-spacing:normal;text-anchor:start;fill:none;fill-opacity:1;fill-rule:evenodd;stroke:#000000;stroke-linecap:butt;stroke-linejoin:miter;stroke-miterlimit:10.43299961;stroke-dasharray:none;stroke-dashoffset:0;stroke-opacity:1"><polygon
             id="polygon5382"
             points="462.68,432.9 468.45,437.98 474.18,432.9 475.08,433.8 468.45,440.57 461.78,433.8 "
             style="fill:#000000;stroke-width:0" /><path
             id="path5384"
             d="m 474.58,424.83 -0.08,0.17 -0.09,0.17 -0.1,0.16 -0.09,0.16 -0.1,0.16 -0.1,0.16 -0.11,0.15 -0.11,0.14 -0.11,0.15 -0.12,0.13 -0.12,0.14 -0.12,0.13 -0.13,0.12 -0.13,0.12 -0.14,0.11 -0.14,0.11 -0.14,0.11 -0.15,0.09 -0.15,0.1 -0.15,0.08 -0.16,0.08 -0.17,0.08 -0.17,0.07 -0.17,0.06 -0.17,0.05 -0.19,0.05 -0.18,0.04 -0.19,0.03 -0.19,0.03 -0.2,0.02 -0.21,0.01 -0.2,0.01 0.05,-1.1 c 3.24,0 3.93,-4.08 3.93,-4.38 0,-0.3 -0.1,-0.6 -0.15,-0.85 l -2.49,-9.76 c -0.25,-0.9 -0.25,-1 -0.99,-1.84 -2.19,-2.75 -4.24,-3.54 -5.63,-3.54 -2.49,0 -3.19,2.74 -3.19,4.68 0,2.49 1.59,8.62 2.74,10.91 1.54,2.94 3.78,4.78 5.78,4.78 l -0.05,1.1 c -5.83,0 -12.01,-7.32 -12.01,-14.6 0,-4.68 2.74,-7.97 6.63,-7.97 0.99,0 3.49,0.2 6.47,3.74 0.4,-2.09 2.14,-3.74 4.53,-3.74 1.75,0 2.9,1.15 3.69,2.74 0.85,1.79 1.5,4.83 1.5,4.93 0,0.5 -0.45,0.5 -0.6,0.5 -0.5,0 -0.55,-0.2 -0.7,-0.89 -0.85,-3.24 -1.74,-6.18 -3.78,-6.18 -1.35,0 -1.5,1.29 -1.5,2.29 0,1.09 0.1,1.49 0.65,3.69 0.55,2.09 0.65,2.59 1.1,4.48 l 1.79,6.97 c 0.35,1.4 0.35,1.5 0.35,1.7 0,0.84 -0.6,1.34 -1.45,1.34 -1.19,0 -1.94,-1.09 -2.09,-2.19 z"
             inkscape:connector-curvature="0"
             style="fill:#000000;stroke-width:0" /><path
             id="path5386"
             d="m 507.94,406.88 0.05,0 0.06,0 0.05,0 0.06,0 0.12,0 0.06,0.01 0.05,0 0.06,0.01 0.06,0 0.06,0.01 0.06,0.01 0.05,0.02 0.06,0.01 0.06,0.02 0.05,0.01 0.05,0.02 0.05,0.03 0.05,0.02 0.04,0.03 0.04,0.04 0.05,0.03 0.03,0.04 0.02,0.02 0.02,0.02 0.01,0.03 0.02,0.02 0.01,0.02 0.02,0.03 0.01,0.03 0.01,0.02 0.01,0.03 0.01,0.03 0.01,0.03 0,0.03 0.01,0.04 0.01,0.03 0,0.04 0,0.03 0.01,0.04 0,0.04 c 0,0.87 -0.8,0.87 -1.4,0.87 l -20.78,0 c -0.56,0 -1.39,0 -1.39,-0.84 0,-0.87 0.8,-0.87 1.39,-0.87 z"
             inkscape:connector-curvature="0"
             style="fill:#000000;stroke-width:0" /></g>      </g>
      <g
         transform="matrix(2.0239197,0,0,1.8496528,629.54914,153.71969)"
         id="g5498">
        <g
           style="font-style:normal;font-variant:normal;font-weight:normal;font-stretch:normal;letter-spacing:normal;word-spacing:normal;text-anchor:start;fill:none;fill-opacity:1;fill-rule:evenodd;stroke:#000000;stroke-linecap:butt;stroke-linejoin:miter;stroke-miterlimit:10.43299961;stroke-dasharray:none;stroke-dashoffset:0;stroke-opacity:1"
           id="g5500"
           transform="matrix(0.41224204,0,0,-0.41224204,-72.142358,313.76994)"
           xml:space="preserve"
           stroke-miterlimit="10.433"
           font-style="normal"
           font-variant="normal"
           font-weight="normal"
           font-stretch="normal"
           font-size-adjust="none"
           letter-spacing="normal"
           word-spacing="normal"><polygon
             style="fill:#000000;stroke-width:0"
             points="475.08,433.8 468.45,440.57 461.78,433.8 462.68,432.9 468.45,437.98 474.18,432.9 "
             id="polygon5502" /><path
             style="fill:#000000;stroke-width:0"
             inkscape:connector-curvature="0"
             d="m 474.58,424.83 -0.08,0.17 -0.09,0.17 -0.1,0.16 -0.09,0.16 -0.1,0.16 -0.1,0.16 -0.11,0.15 -0.11,0.14 -0.11,0.15 -0.12,0.13 -0.12,0.14 -0.12,0.13 -0.13,0.12 -0.13,0.12 -0.14,0.11 -0.14,0.11 -0.14,0.11 -0.15,0.09 -0.15,0.1 -0.15,0.08 -0.16,0.08 -0.17,0.08 -0.17,0.07 -0.17,0.06 -0.17,0.05 -0.19,0.05 -0.18,0.04 -0.19,0.03 -0.19,0.03 -0.2,0.02 -0.21,0.01 -0.2,0.01 0.05,-1.1 c 3.24,0 3.93,-4.08 3.93,-4.38 0,-0.3 -0.1,-0.6 -0.15,-0.85 l -2.49,-9.76 c -0.25,-0.9 -0.25,-1 -0.99,-1.84 -2.19,-2.75 -4.24,-3.54 -5.63,-3.54 -2.49,0 -3.19,2.74 -3.19,4.68 0,2.49 1.59,8.62 2.74,10.91 1.54,2.94 3.78,4.78 5.78,4.78 l -0.05,1.1 c -5.83,0 -12.01,-7.32 -12.01,-14.6 0,-4.68 2.74,-7.97 6.63,-7.97 0.99,0 3.49,0.2 6.47,3.74 0.4,-2.09 2.14,-3.74 4.53,-3.74 1.75,0 2.9,1.15 3.69,2.74 0.85,1.79 1.5,4.83 1.5,4.93 0,0.5 -0.45,0.5 -0.6,0.5 -0.5,0 -0.55,-0.2 -0.7,-0.89 -0.85,-3.24 -1.74,-6.18 -3.78,-6.18 -1.35,0 -1.5,1.29 -1.5,2.29 0,1.09 0.1,1.49 0.65,3.69 0.55,2.09 0.65,2.59 1.1,4.48 l 1.79,6.97 c 0.35,1.4 0.35,1.5 0.35,1.7 0,0.84 -0.6,1.34 -1.45,1.34 -1.19,0 -1.94,-1.09 -2.09,-2.19 z"
             id="path5504" /><path
             style="fill:#000000;stroke-width:0"
             inkscape:connector-curvature="0"
             d="m 498.14,406.88 10.67,0 c 0.46,0 1.3,0 1.3,0.84 0,0.87 -0.81,0.87 -1.3,0.87 l -10.67,0 0,10.7 c 0,0.46 0,1.29 -0.83,1.29 -0.87,0 -0.87,-0.8 -0.87,-1.29 l 0,-10.7 -10.71,0 c -0.45,0 -1.29,0 -1.29,-0.84 0,-0.87 0.8,-0.87 1.29,-0.87 l 10.71,0 0,-10.7 c 0,-0.46 0,-1.29 0.83,-1.29 0.87,0 0.87,0.8 0.87,1.29 z"
             id="path5506" /></g>      </g>
      <g
         id="g5628"
         transform="matrix(2.0414706,0,0,2.0747711,540.48019,228.41018)">
        <g
           word-spacing="normal"
           letter-spacing="normal"
           font-size-adjust="none"
           font-stretch="normal"
           font-weight="normal"
           font-variant="normal"
           font-style="normal"
           stroke-miterlimit="10.433"
           xml:space="preserve"
           transform="matrix(0.41224204,0,0,-0.41224204,-72.142358,313.76994)"
           id="g5630"
           style="font-style:normal;font-variant:normal;font-weight:normal;font-stretch:normal;letter-spacing:normal;word-spacing:normal;text-anchor:start;fill:none;fill-opacity:1;fill-rule:evenodd;stroke:#000000;stroke-linecap:butt;stroke-linejoin:miter;stroke-miterlimit:10.43299961;stroke-dasharray:none;stroke-dashoffset:0;stroke-opacity:1"><path
             id="path5632"
             d="m 479.76,417.76 0,0.36 -0.01,0.36 -0.02,0.34 -0.02,0.34 -0.07,0.66 -0.08,0.62 -0.12,0.6 -0.13,0.57 -0.15,0.54 -0.18,0.51 -0.19,0.48 -0.22,0.46 -0.22,0.43 -0.25,0.41 -0.26,0.38 -0.27,0.36 -0.29,0.33 -0.3,0.31 -0.3,0.29 -0.32,0.26 -0.33,0.24 -0.34,0.22 -0.34,0.2 -0.34,0.18 -0.36,0.16 -0.35,0.14 -0.36,0.13 -0.36,0.1 -0.36,0.09 -0.36,0.07 -0.36,0.05 -0.36,0.04 -0.35,0.02 -0.35,0.01 -0.05,-1.1 c 4.93,0 4.93,-6.53 4.93,-10.41 0,-1.84 0,-4.73 0.1,-5.58 l 0,0 c -4.38,-3.83 -8.22,-4.38 -10.21,-4.38 -2.99,0 -4.48,2.24 -4.48,5.43 0,2.44 1.29,7.82 2.89,10.36 2.34,3.64 5.03,4.58 6.77,4.58 l 0.05,1.1 c -6.82,0 -13.4,-7.13 -13.4,-14.15 0,-4.63 2.99,-8.42 8.07,-8.42 3.14,0 6.73,1.15 10.51,4.19 0.65,-2.64 2.29,-4.19 4.54,-4.19 2.64,0 4.18,2.74 4.18,3.54 0,0.35 -0.3,0.5 -0.6,0.5 -0.35,0 -0.5,-0.15 -0.65,-0.5 -0.89,-2.44 -2.68,-2.44 -2.79,-2.44 -1.54,0 -1.54,3.88 -1.54,5.08 0,1.05 0,1.14 0.5,1.74 4.68,5.88 5.73,11.66 5.73,11.71 0,0.1 -0.05,0.5 -0.6,0.5 -0.5,0 -0.5,-0.15 -0.75,-1.05 -0.89,-3.14 -2.54,-6.92 -4.88,-9.86 z"
             inkscape:connector-curvature="0"
             style="fill:#000000;stroke-width:0" /></g>      </g>
    </g>
  </g>
</svg>
