<?xml version="1.0" encoding="utf-8"?>
<!-- Generator: Adobe Illustrator 16.0.0, SVG Export Plug-In . SVG Version: 6.00 Build 0)  -->
<!DOCTYPE svg PUBLIC "-//W3C//DTD SVG 1.1//EN" "http://www.w3.org/Graphics/SVG/1.1/DTD/svg11.dtd">
<svg version="1.1" id="Layer_1" xmlns="http://www.w3.org/2000/svg" xmlns:xlink="http://www.w3.org/1999/xlink" x="0px" y="0px"
	 width="600px" height="600px" viewBox="0 0 600 600" enable-background="new 0 0 600 600" xml:space="preserve">
<circle fill="#FFFFFF" stroke="#000000" stroke-width="6" stroke-miterlimit="10" cx="172.915" cy="182.116" r="17.637"/>
<circle fill="#FFFFFF" stroke="#000000" stroke-width="6" stroke-miterlimit="10" cx="172.916" cy="400.973" r="17.638"/>
<line fill="none" stroke="#000000" stroke-width="25" stroke-miterlimit="10" x1="172.5" y1="200" x2="172.5" y2="381"/>
<circle fill="#FFFFFF" stroke="#000000" stroke-width="6" stroke-miterlimit="10" cx="369.795" cy="231.499" r="17.466"/>
<circle fill="#FFFFFF" stroke="#000000" stroke-width="6" stroke-miterlimit="10" cx="369.795" cy="349.712" r="17.466"/>
<line fill="none" stroke="#000000" stroke-width="25" stroke-miterlimit="10" x1="368.5" y1="248" x2="368.5" y2="330"/>
<circle fill="#FFFFFF" stroke="#000000" stroke-width="6" stroke-miterlimit="10" cx="405.258" cy="182.901" r="17.466"/>
<path fill="#FFFFFF" stroke="#000000" stroke-width="6" stroke-miterlimit="10" d="M422.725,399.624
	c0,9.645-7.82,17.465-17.469,17.465c-9.646,0-17.464-7.82-17.464-17.465c0-9.648,7.818-17.467,17.464-17.467
	C414.904,382.157,422.725,389.976,422.725,399.624z"/>
<line fill="none" stroke="#000000" stroke-width="25" stroke-miterlimit="10" x1="389" y1="184.5" x2="248" y2="184.5"/>
<line fill="none" stroke="#000000" stroke-width="25" stroke-miterlimit="10" x1="255.5" y1="184" x2="255.5" y2="399"/>
<line fill="none" stroke="#000000" stroke-width="25" stroke-miterlimit="10" x1="389" y1="399.5" x2="248" y2="399.5"/>
<circle fill="#FFFFFF" stroke="#000000" stroke-width="6" stroke-miterlimit="10" cx="254.208" cy="182.901" r="17.466"/>
<path fill="#FFFFFF" stroke="#000000" stroke-width="6" stroke-miterlimit="10" d="M271.674,399.624
	c0,9.645-7.82,17.465-17.468,17.465c-9.644,0-17.464-7.82-17.464-17.465c0-9.648,7.82-17.467,17.464-17.467
	C263.854,382.157,271.674,389.976,271.674,399.624z"/>
<line fill="none" stroke="#000000" stroke-width="25" stroke-miterlimit="10" x1="416.725" y1="409.791" x2="538.846" y2="539.201"/>
<polygon fill="none" stroke="#000000" stroke-width="25" stroke-miterlimit="10" points="203.807,522.5 67.5,386.193 67.5,193.807 
	203.807,57.5 396.193,57.5 532.5,193.807 532.5,386.193 396.193,522.5 "/>
</svg>
